<svg width="72" height="72" viewBox="0 0 72 72" fill="none" xmlns="http://www.w3.org/2000/svg">
<rect width="72" height="72" rx="36" fill="#FDE6E6"/>
<path d="M51 25.9666C45.45 25.4166 39.8667 25.1333 34.3 25.1333C31 25.1333 27.7 25.3 24.4 25.6333L21 25.9666" stroke="#E20000" stroke-width="2" stroke-linecap="round" stroke-linejoin="round"/>
<path d="M30.1667 24.2834L30.5334 22.1C30.8001 20.5167 31.0001 19.3334 33.8167 19.3334H38.1834C41.0001 19.3334 41.2167 20.5834 41.4667 22.1167L41.8334 24.2834" stroke="#E20000" stroke-width="2" stroke-linecap="round" stroke-linejoin="round"/>
<path d="M47.4166 31.2333L46.3333 48.0166C46.1499 50.6333 45.9999 52.6666 41.3499 52.6666H30.6499C25.9999 52.6666 25.8499 50.6333 25.6666 48.0166L24.5833 31.2333" stroke="#E20000" stroke-width="2" stroke-linecap="round" stroke-linejoin="round"/>
<path d="M33.2166 43.5H38.7666" stroke="#E20000" stroke-width="2" stroke-linecap="round" stroke-linejoin="round"/>
<path d="M31.8333 36.8334H40.1666" stroke="#E20000" stroke-width="2" stroke-linecap="round" stroke-linejoin="round"/>
</svg>
