<svg width="15" height="14" viewBox="0 0 15 14" fill="none" xmlns="http://www.w3.org/2000/svg">
<path d="M12.75 3.48832C10.8075 3.29582 8.85333 3.19666 6.905 3.19666C5.75 3.19666 4.595 3.25499 3.44 3.37166L2.25 3.48832" stroke="#E20000" stroke-width="0.875" stroke-linecap="round" stroke-linejoin="round"/>
<path d="M5.45834 2.89913L5.58668 2.13496C5.68001 1.58079 5.75001 1.16663 6.73584 1.16663H8.26418C9.25001 1.16663 9.32584 1.60413 9.41334 2.14079L9.54168 2.89913" stroke="#E20000" stroke-width="0.875" stroke-linecap="round" stroke-linejoin="round"/>
<path d="M11.4958 5.33167L11.1167 11.2058C11.0525 12.1217 11 12.8333 9.37251 12.8333H5.62751C4.00001 12.8333 3.94751 12.1217 3.88335 11.2058L3.50418 5.33167" stroke="#E20000" stroke-width="0.875" stroke-linecap="round" stroke-linejoin="round"/>
<path d="M6.52582 9.625H8.46832" stroke="#E20000" stroke-width="0.875" stroke-linecap="round" stroke-linejoin="round"/>
<path d="M6.04166 7.29163H8.95832" stroke="#E20000" stroke-width="0.875" stroke-linecap="round" stroke-linejoin="round"/>
</svg>
