<svg width="15" height="14" viewBox="0 0 15 14" fill="none" xmlns="http://www.w3.org/2000/svg">
<path d="M6.91666 1.16663H5.74999C2.83332 1.16663 1.66666 2.33329 1.66666 5.24996V8.74996C1.66666 11.6666 2.83332 12.8333 5.74999 12.8333H9.24999C12.1667 12.8333 13.3333 11.6666 13.3333 8.74996V7.58329" stroke="#0DB16D" stroke-width="0.875" stroke-linecap="round" stroke-linejoin="round"/>
<path d="M9.85666 1.76169L5.25999 6.35836C5.08499 6.53336 4.90999 6.87753 4.87499 7.12836L4.62416 8.88419C4.53082 9.52002 4.97999 9.96336 5.61582 9.87586L7.37166 9.62503C7.61666 9.59003 7.96082 9.41503 8.14166 9.24003L12.7383 4.64336C13.5317 3.85003 13.905 2.92836 12.7383 1.76169C11.5717 0.595025 10.65 0.968359 9.85666 1.76169Z" stroke="#0DB16D" stroke-width="0.875" stroke-miterlimit="10" stroke-linecap="round" stroke-linejoin="round"/>
<path d="M9.19751 2.42078C9.58834 3.81494 10.6792 4.90578 12.0792 5.30244" stroke="#0DB16D" stroke-width="0.875" stroke-miterlimit="10" stroke-linecap="round" stroke-linejoin="round"/>
</svg>
