<svg width="16" height="16" viewBox="0 0 16 16" fill="none" xmlns="http://www.w3.org/2000/svg">
<path d="M9.33337 2V4.66667C9.33337 4.84348 9.40361 5.01305 9.52864 5.13807C9.65366 5.2631 9.82323 5.33333 10 5.33333H12.6667M9.33337 2H4.66671C4.31309 2 3.97395 2.14048 3.7239 2.39052C3.47385 2.64057 3.33337 2.97971 3.33337 3.33333V12.6667C3.33337 13.0203 3.47385 13.3594 3.7239 13.6095C3.97395 13.8595 4.31309 14 4.66671 14H7.66671M9.33337 2L12.6667 5.33333M12.6667 5.33333V8.66667M9.33337 12.6667H14M14 12.6667L12 10.6667M14 12.6667L12 14.6667" stroke="#0A0A0A" stroke-width="1.2" stroke-linecap="round" stroke-linejoin="round"/>
</svg>
